<svg xmlns="http://www.w3.org/2000/svg" width="1200" height="630" viewBox="0 0 1200 630">
<defs>
 <linearGradient id="background" x2="1" y2="1"><stop stop-color="#090b14"/><stop offset="1" stop-color="#0e1b3d"/></linearGradient>
 <linearGradient id="ink" x2="1"><stop stop-color="#22d3ee"/><stop offset=".5" stop-color="#3b82f6"/><stop offset="1" stop-color="#8b5cf6"/></linearGradient>
 <radialGradient id="cyanGlow"><stop stop-color="#22d3ee" stop-opacity=".14"/><stop offset="1" stop-color="#22d3ee" stop-opacity="0"/></radialGradient>
 <radialGradient id="violetGlow"><stop stop-color="#8b5cf6" stop-opacity=".22"/><stop offset="1" stop-color="#8b5cf6" stop-opacity="0"/></radialGradient>
</defs>
<rect width="1200" height="630" fill="url(#background)"/>
<circle cx="90" cy="70" r="450" fill="url(#cyanGlow)"/>
<circle cx="1110" cy="500" r="460" fill="url(#violetGlow)"/>
<g font-family="DejaVu Sans, sans-serif">
<g transform="translate(72 49) scale(1.0)"><defs><linearGradient id="headerBrand" x1="0" y1="0" x2="1" y2="1"><stop stop-color="#22d3ee"/><stop offset=".5" stop-color="#3b82f6"/><stop offset="1" stop-color="#8b5cf6"/></linearGradient></defs><rect width="64" height="64" rx="15" fill="#090b14"/><circle cx="32" cy="32" r="19" fill="url(#headerBrand)"/><ellipse cx="32" cy="33" rx="27" ry="11" transform="rotate(-24 32 33)" fill="none" stroke="#22d3ee" stroke-width="2.5"/><path d="M26 18h12m-9 0v12l-8 14c-1 2 0 4 3 4h17c3 0 4-2 3-4l-9-14V18M26 38h13" fill="#0e1b3d" stroke="#fff" stroke-width="2.4" stroke-linecap="round" stroke-linejoin="round"/></g><text x="151" y="93" fill="#fff" font-size="32" font-weight="700">Orbe<tspan fill="url(#ink)">Labz</tspan></text>
<path d="M80 134H1120" stroke="#ffffff" stroke-opacity=".1"/>
<text x="331" y="91" fill="#a8b3cf" font-size="23">/ Apuração</text><text x="80" y="190" font-size="12" fill="#22d3ee" letter-spacing="2">CADA VOTO, EM QUALQUER LUGAR</text>
<text x="76" y="284" font-size="65" font-weight="700" fill="#fff" letter-spacing="-2">Apuração</text>
<text x="76" y="361" font-size="60" font-weight="700" fill="url(#ink)" letter-spacing="-2">em tempo real</text>
<text x="80" y="422" font-size="21" fill="#a8b3cf">Brasil + brasileiros no exterior</text>
<rect x="80" y="459" width="260" height="42" rx="12" fill="#22d3ee" fill-opacity=".07" stroke="#22d3ee" stroke-opacity=".3"/>
<text x="100" y="486" font-size="15" fill="#22d3ee">Dados oficiais do TSE</text>
<text x="80" y="541" font-size="16" fill="#a8b3cf">Atualização automática</text>
<text x="80" y="586" font-size="14" fill="#a8b3cf">orbelabz.com/OrbeLabz-Eleicoes-Brasil/</text>
<rect x="740" y="176" width="388" height="364" rx="22" fill="#0e1b3d" stroke="#384a72"/>
<circle cx="767" cy="204" r="4" fill="#22d3ee"/>
<circle cx="783" cy="204" r="4" fill="#3b82f6"/>
<circle cx="799" cy="204" r="4" fill="#8b5cf6"/>
<text x="820" y="209" font-size="14" fill="#e2e8f8">OrbeLabz - Apuração</text>
<path d="M740 229H1128" stroke="#384a72"/>
<g transform="translate(825 247) scale(3.40625)"><defs><linearGradient id="serviceBrand" x1="0" y1="0" x2="1" y2="1"><stop stop-color="#22d3ee"/><stop offset=".5" stop-color="#3b82f6"/><stop offset="1" stop-color="#8b5cf6"/></linearGradient></defs><circle cx="32" cy="32" r="19" fill="url(#serviceBrand)"/><ellipse cx="32" cy="33" rx="27" ry="11" transform="rotate(-24 32 33)" fill="none" stroke="#22d3ee" stroke-width="2.5"/><path d="M26 18h12m-9 0v12l-8 14c-1 2 0 4 3 4h17c3 0 4-2 3-4l-9-14V18M26 38h13" fill="#0e1b3d" stroke="#fff" stroke-width="2.4" stroke-linecap="round" stroke-linejoin="round"/></g><rect x="764" y="482" width="168" height="36" rx="10" fill="#22d3ee" fill-opacity=".09" stroke="#22d3ee" stroke-opacity=".25"/>
<rect x="945" y="482" width="159" height="36" rx="10" fill="#8b5cf6" fill-opacity=".09" stroke="#8b5cf6" stroke-opacity=".25"/>
<text x="848" y="506" text-anchor="middle" font-size="13" fill="#22d3ee" letter-spacing="1">BRASIL</text>
<text x="1024" y="506" text-anchor="middle" font-size="13" fill="#b7a2fc" letter-spacing="1">EXTERIOR</text>
</g></svg>